<svg width="159" height="340" viewBox="0 0 159 340" fill="none" xmlns="http://www.w3.org/2000/svg">
<path d="M3 48H0V98H3V48Z" fill="#535461"/>
<path d="M3 114H0V142H3V114Z" fill="#535461"/>
<path d="M135.525 0H25.4752C12.5102 0 2 10.482 2 23.4123V316.588C2 329.518 12.5102 340 25.4752 340H135.525C148.49 340 159 329.518 159 316.588V23.4123C159 10.482 148.49 0 135.525 0Z" fill="#535461"/>
<path d="M135.525 16H25.4752C12.5102 16 2 26.4929 2 39.4366V302.563C2 315.507 12.5102 326 25.4752 326H135.525C148.49 326 159 315.507 159 302.563V39.4366C159 26.4929 148.49 16 135.525 16Z" fill="#25D366"/>
<path d="M92.25 8H69.75C68.7835 8 68 8.67157 68 9.5C68 10.3284 68.7835 11 69.75 11H92.25C93.2165 11 94 10.3284 94 9.5C94 8.67157 93.2165 8 92.25 8Z" fill="#EAEAF3"/>
<path d="M102.5 12C103.881 12 105 10.8807 105 9.5C105 8.11929 103.881 7 102.5 7C101.119 7 100 8.11929 100 9.5C100 10.8807 101.119 12 102.5 12Z" fill="#EAEAF3"/>
<path d="M40.1605 153.712V190.443C40.1731 191.594 39.9581 192.737 39.528 193.804C39.098 194.872 38.4614 195.842 37.6553 196.66C36.8492 197.477 35.8897 198.125 34.8326 198.566C33.7755 199.007 32.6419 199.232 31.4976 199.228C26.6788 199.228 22 195.298 22 190.443V153.712C22 148.922 26.6638 144.992 31.4976 144.992C33.7923 145.002 35.9904 145.923 37.613 147.557C39.2356 149.19 40.1513 151.402 40.1605 153.712ZM43.5647 203.495C43.562 204.728 43.8014 205.949 44.2689 207.089C44.7365 208.228 45.4231 209.264 46.2893 210.136C47.1555 211.008 48.1843 211.699 49.3166 212.17C50.4489 212.64 51.6623 212.881 52.8873 212.878H59.1558L59.2508 232.255C59.2508 243.954 76.6415 243.863 76.6415 232.255V212.883H88.3586V232.26C88.3586 243.898 105.854 243.928 105.854 232.26V212.883H112.218C113.438 212.88 114.646 212.634 115.772 212.16C116.897 211.686 117.92 210.994 118.78 210.123C119.64 209.251 120.321 208.218 120.784 207.081C121.248 205.945 121.484 204.728 121.48 203.5V146.592H43.5647V203.495ZM121.69 143.533H43.2097C43.2097 129.948 51.2727 118.164 63.2448 112.015L57.2463 100.82C56.3665 99.2653 58.6009 98.3043 59.3557 99.6175L65.4692 110.908C70.8483 108.54 76.6562 107.317 82.5275 107.317C88.3988 107.317 94.2067 108.54 99.5858 110.908L105.664 99.6527C106.454 98.2892 108.664 99.3055 107.774 100.855L101.775 112.015C113.627 118.164 121.69 129.963 121.69 143.533ZM67.9136 125.923C67.9136 125.039 67.565 124.192 66.9444 123.567C66.3238 122.943 65.4821 122.592 64.6044 122.592C63.7497 122.625 62.941 122.99 62.3481 123.611C61.7551 124.232 61.4239 125.059 61.4239 125.92C61.4239 126.781 61.7551 127.609 62.3481 128.229C62.941 128.85 63.7497 129.215 64.6044 129.249C65.4795 129.249 66.3189 128.9 66.9391 128.278C67.5592 127.657 67.9097 126.813 67.9136 125.933V125.923ZM103.64 125.923C103.63 125.274 103.429 124.643 103.063 124.109C102.697 123.576 102.182 123.163 101.583 122.924C100.984 122.685 100.328 122.63 99.698 122.765C99.0679 122.901 98.492 123.222 98.0431 123.688C97.5941 124.153 97.2922 124.742 97.1756 125.379C97.059 126.017 97.1328 126.676 97.3878 127.271C97.6427 127.867 98.0674 128.373 98.6081 128.726C99.1488 129.079 99.7813 129.262 100.426 129.254C101.287 129.234 102.106 128.875 102.707 128.254C103.308 127.633 103.643 126.8 103.64 125.933V125.923ZM133.502 144.982C132.364 144.979 131.236 145.202 130.183 145.639C129.131 146.076 128.175 146.718 127.369 147.529C126.564 148.339 125.926 149.302 125.492 150.361C125.058 151.421 124.836 152.556 124.839 153.702V190.433C124.835 191.582 125.055 192.721 125.488 193.785C125.921 194.849 126.558 195.816 127.363 196.632C128.167 197.448 129.123 198.096 130.177 198.54C131.23 198.983 132.36 199.214 133.502 199.218C138.356 199.218 143 195.288 143 190.433V153.702C142.985 148.831 138.321 144.992 133.502 144.992V144.982Z" fill="white"/>
</svg>
