<svg width="222" height="355" viewBox="0 0 222 355" fill="none" xmlns="http://www.w3.org/2000/svg">
<g clip-path="url(#clip0)">
<path d="M75.7306 122.503C73.4757 126.066 69.905 128.59 65.7982 129.524C61.6914 130.459 57.3822 129.728 53.8118 127.491L7.39247 96.8533C3.83548 94.5949 1.31524 91.0187 0.382153 86.9056C-0.550931 82.7924 0.178963 78.4766 2.41243 74.9007C4.66726 71.3382 8.23799 68.8141 12.3448 67.8795C16.4516 66.945 20.7608 67.676 24.3312 69.9129L70.7505 100.55C74.3075 102.809 76.8277 106.385 77.7608 110.498C78.6939 114.611 77.964 118.927 75.7306 122.503Z" fill="url(#paint0_linear)"/>
<path d="M73.1676 120.826C71.0722 124.139 67.753 126.486 63.935 127.356C60.117 128.225 56.1106 127.545 52.7913 125.466L9.64031 96.9616C6.33279 94.8629 3.98903 91.5385 3.12111 87.7146C2.25318 83.8908 2.93164 79.8783 5.00826 76.5538C7.10364 73.2412 10.4229 70.8938 14.2409 70.0245C18.0589 69.1553 22.0653 69.8348 25.3846 71.9146L68.5403 100.395C71.8535 102.495 74.2009 105.824 75.0682 109.653C75.9355 113.483 75.2521 117.501 73.1676 120.826Z" fill="#BE7C5E"/>
<path d="M221.981 268.019C221.977 259.565 218.826 251.418 213.142 245.168C207.459 238.919 199.653 235.017 191.25 234.225C182.847 233.434 174.451 235.81 167.704 240.889C160.957 245.968 156.344 253.384 154.767 261.689L50.567 258.863L51.7473 276.788C51.7473 276.788 36.8919 311.123 114.978 320.284V355H205.268V297.314C210.363 294.314 214.585 290.033 217.517 284.894C220.449 279.755 221.988 273.937 221.981 268.019Z" fill="url(#paint1_linear)"/>
<path d="M41.712 282.812C41.1759 292.472 47.7031 312.611 108.541 319.191V352.443H202.32V264.368L41.665 260.346L41.7167 261.123C42.1664 268.346 42.1648 275.59 41.712 282.812Z" fill="#BE7C5E"/>
<g opacity="0.5">
<path opacity="0.5" d="M180.556 3.11227e-05L41.7402 0.339141C40.2282 0.342884 38.7795 0.94774 37.7125 2.02078C36.6455 3.09381 36.0476 4.54723 36.0501 6.06161L36.699 266.097C36.7009 266.847 36.8502 267.59 37.1386 268.282C37.427 268.975 37.8487 269.603 38.3797 270.133C38.9107 270.662 39.5406 271.081 40.2334 271.366C40.9261 271.652 41.6683 271.798 42.4174 271.796L181.233 271.457C181.982 271.455 182.724 271.305 183.415 271.017C184.106 270.728 184.734 270.305 185.263 269.773C185.791 269.242 186.21 268.611 186.495 267.917C186.779 267.223 186.925 266.48 186.923 265.73L186.279 5.69895C186.277 4.9483 186.128 4.20538 185.839 3.51264C185.55 2.81991 185.128 2.19093 184.597 1.66168C184.065 1.13242 183.435 0.713258 182.741 0.428144C182.048 0.143029 181.306 -0.00244651 180.556 3.11227e-05Z" fill="url(#paint2_linear)"/>
</g>
<path d="M177.827 3.54874L44.4896 3.87505C40.9471 3.88372 38.0823 6.76697 38.091 10.315L38.7043 261.707C38.713 265.255 41.5918 268.124 45.1343 268.115L178.471 267.789C182.014 267.78 184.879 264.897 184.87 261.349L184.257 9.95726C184.248 6.40927 181.369 3.54007 177.827 3.54874Z" fill="white"/>
<path d="M147.892 10.2486C147.475 13.051 146.072 15.6117 143.935 17.468C141.797 19.3243 139.068 20.3537 136.239 20.37L85.7518 20.4925C82.9223 20.4905 80.187 19.4747 78.0402 17.6288C75.8935 15.7828 74.477 13.2284 74.047 10.4275L47.3034 10.4935C45.8312 10.4972 44.4208 11.0862 43.3821 12.131C42.3433 13.1757 41.7612 14.5908 41.7637 16.0652L42.3421 255.938C42.3459 257.412 42.9339 258.825 43.9771 259.865C45.0203 260.905 46.4332 261.488 47.9053 261.486L175.642 261.175C177.114 261.171 178.524 260.582 179.563 259.538C180.602 258.493 181.184 257.078 181.181 255.603L180.598 15.7308C180.595 14.2564 180.007 12.8438 178.963 11.8035C177.92 10.7631 176.507 10.1801 175.035 10.1826L147.892 10.2486Z" fill="#25D366"/>
<path d="M125.191 13.291L94.5055 13.7523C93.9861 13.7601 93.5714 14.1882 93.5792 14.7083L93.5815 14.8638C93.5893 15.3839 94.0167 15.7993 94.536 15.7915L125.222 15.3301C125.741 15.3223 126.156 14.8943 126.148 14.3741L126.146 14.2187C126.138 13.6986 125.711 13.2832 125.191 13.291Z" fill="#DBDBDB"/>
<path d="M133.083 15.212C133.758 15.2018 134.297 14.6454 134.287 13.9692C134.277 13.2929 133.722 12.753 133.046 12.7631C132.371 12.7733 131.832 13.3297 131.842 14.0059C131.852 14.6821 132.408 15.2221 133.083 15.212Z" fill="#DBDBDB"/>
<path opacity="0.5" d="M111.39 251.096C117.847 251.096 123.081 245.854 123.081 239.387C123.081 232.921 117.847 227.679 111.39 227.679C104.934 227.679 99.6996 232.921 99.6996 239.387C99.6996 245.854 104.934 251.096 111.39 251.096Z" fill="#EEEEEE"/>
<path opacity="0.2" d="M111.39 247.639C115.941 247.639 119.629 243.945 119.629 239.387C119.629 234.83 115.941 231.136 111.39 231.136C106.84 231.136 103.151 234.83 103.151 239.387C103.151 243.945 106.84 247.639 111.39 247.639Z" stroke="#25D366" stroke-miterlimit="10"/>
<path opacity="0.5" d="M72.1472 232.28H57.9548V246.495H72.1472V232.28Z" fill="#EEEEEE"/>
<path opacity="0.5" d="M163.044 234.324V232.761C163.044 232.636 162.994 232.516 162.906 232.428C162.818 232.339 162.698 232.29 162.573 232.29H157.085C156.961 232.29 156.841 232.339 156.753 232.428C156.665 232.516 156.615 232.636 156.615 232.761V234.324H154.49V233.382H153.229V234.324H151.654V243.777H168.014V234.324H163.044Z" fill="#EEEEEE"/>
<path d="M181.111 37.8436H41.6697V213.04H181.111V37.8436Z" fill="url(#paint3_linear)"/>
<path opacity="0.7" d="M166.081 30.7364C168.157 30.7364 169.839 29.0516 169.839 26.9733C169.839 24.8949 168.157 23.2101 166.081 23.2101C164.006 23.2101 162.324 24.8949 162.324 26.9733C162.324 29.0516 164.006 30.7364 166.081 30.7364Z" fill="#EEEEEE"/>
<path opacity="0.7" d="M168.588 34.4996C170.663 34.4996 172.345 32.8148 172.345 30.7364C172.345 28.6581 170.663 26.9733 168.588 26.9733C166.513 26.9733 164.831 28.6581 164.831 30.7364C164.831 32.8148 166.513 34.4996 168.588 34.4996Z" fill="#EEEEEE"/>
<path opacity="0.5" d="M163.161 34.4996C165.236 34.4996 166.919 32.8148 166.919 30.7364C166.919 28.6581 165.236 26.9733 163.161 26.9733C161.086 26.9733 159.404 28.6581 159.404 30.7364C159.404 32.8148 161.086 34.4996 163.161 34.4996Z" fill="#EEEEEE"/>
<path opacity="0.7" d="M51.2724 23.2101L57.1177 26.9733L48.7659 30.7364L52.9418 34.4996" fill="#EEEEEE"/>
<path opacity="0.3" d="M83.0008 106.838H41.6697V213.045H83.0008V106.838Z" fill="#25D366"/>
<path opacity="0.3" d="M161.906 187.956H141.449V213.045H161.906V187.956Z" fill="#25D366"/>
<path opacity="0.3" d="M179.446 167.049H161.91V213.46H179.446V167.049Z" fill="#25D366"/>
<path d="M77.1413 213.041H70.4637C70.4637 213.041 68.3898 139.868 77.1413 117.289H78.8108C78.8108 117.289 72.9795 200.079 77.1413 213.041Z" fill="#FFF8E1"/>
<path d="M72.5657 113.526C72.5657 113.526 67.1389 128.598 69.6454 135.271C69.6454 135.271 73.4075 121.472 77.7856 119.38C82.1637 117.289 86.7628 135.271 86.7628 135.271C86.7628 135.271 89.2693 123.968 84.6749 114.784C84.6749 114.784 93.859 119.8 98.4535 129.417C98.4535 129.417 99.2905 123.144 88.4323 110.182C88.4323 110.182 98.0349 112.692 104.299 118.547C104.299 118.547 106.387 113.945 93.4452 106.419C93.4452 106.419 95.1147 100.984 105.136 103.494C105.136 103.494 105.136 96.387 89.2693 97.6398C89.2693 97.6398 89.2693 93.0383 99.7044 93.8719C99.7044 93.8719 99.7044 88.0176 87.5952 90.1041C87.5952 90.1041 90.1017 86.3362 91.7711 85.5025C91.7711 85.5025 88.4322 85.0834 85.9258 87.1745C85.9258 87.1745 86.3443 79.6388 80.0804 76.7234L79.2434 87.1745C79.2434 87.1745 72.2271 78.8899 73.8166 80.4866C74.2351 80.9057 75.486 85.9217 75.0675 88.4321C75.0675 88.4321 67.9713 82.5777 59.2009 88.8512C59.2009 88.8512 70.0545 89.6896 71.7239 93.4528C71.7239 93.4528 62.5398 91.7808 60.4377 93.0336C60.4377 93.0336 67.5339 95.5439 67.1154 97.2159C67.1154 97.2159 54.5924 97.2159 52.923 101.817C52.923 101.817 65.8645 103.489 66.7016 104.742C66.7016 104.742 51.6533 115.613 50.835 118.542C50.835 118.542 66.283 109.344 68.7848 109.344C71.2866 109.344 57.4986 122.724 58.3498 126.068C58.3686 126.068 69.6407 112.693 72.5657 113.526Z" fill="#C8E6C9"/>
<path d="M82.6481 174.523C82.6481 174.523 64.1058 180.604 68.8036 213.045H77.5693L88.0279 179.916L82.6481 174.523Z" fill="#BE7C5E"/>
<path d="M140.339 174.523C140.339 174.523 158.261 181.437 153.559 213.879L144.953 213.813L134.955 179.902L140.339 174.523Z" fill="#BE7C5E"/>
<path d="M83.4193 121.368C83.4193 121.368 74.9546 164.948 70.3414 162.636C70.3414 162.636 114.87 201.153 154.184 162.636C154.184 162.636 147.262 131.381 137.255 121.368H83.4193Z" fill="#333333"/>
<path d="M111.964 152.18C130.23 152.18 145.037 137.35 145.037 119.056C145.037 100.761 130.23 85.9312 111.964 85.9312C93.6981 85.9312 78.8907 100.761 78.8907 119.056C78.8907 137.35 93.6981 152.18 111.964 152.18Z" fill="#333333"/>
<path opacity="0.1" d="M145.381 213.813C145.381 213.813 149.227 205.335 146.152 194.554C143.076 183.773 145.381 193.782 145.381 193.782L139.996 174.523H82.3142L76.9297 197.635C76.9297 197.635 73.7696 208.335 77.7009 213.04" fill="black"/>
<path d="M140.34 174.523H82.6481L77.2636 197.635C77.2636 197.635 71.9074 212.965 78.0349 213.04C146.044 213.879 78.4111 213.04 145.724 213.813C145.724 213.813 149.571 205.335 146.495 194.554C143.42 183.773 145.724 193.782 145.724 193.782L140.34 174.523Z" fill="#F55F44"/>
<path opacity="0.1" d="M100.344 155.35H123.42V182.224C123.42 182.64 123.338 183.052 123.179 183.437C123.02 183.822 122.786 184.171 122.493 184.465C122.199 184.76 121.85 184.993 121.466 185.152C121.082 185.312 120.67 185.394 120.255 185.394H103.504C103.088 185.394 102.677 185.312 102.293 185.152C101.909 184.993 101.56 184.76 101.266 184.465C100.972 184.171 100.739 183.822 100.58 183.437C100.421 183.052 100.339 182.64 100.339 182.224V155.35H100.344Z" fill="black"/>
<path d="M100.344 154.483H123.42V181.362C123.42 182.203 123.086 183.009 122.493 183.603C121.899 184.198 121.094 184.532 120.255 184.532H103.504C102.665 184.532 101.86 184.198 101.266 183.603C100.673 183.009 100.339 182.203 100.339 181.362V154.483H100.344Z" fill="#BE7C5E"/>
<path opacity="0.1" d="M100.382 157.822C107.818 160.606 116.005 160.629 123.457 157.888V155.062H100.382V157.822Z" fill="black"/>
<path d="M111.964 159.372C130.23 159.372 145.037 144.542 145.037 126.248C145.037 107.953 130.23 93.1232 111.964 93.1232C93.6981 93.1232 78.8907 107.953 78.8907 126.248C78.8907 144.542 93.6981 159.372 111.964 159.372Z" fill="#BE7C5E"/>
<path d="M80.3438 113.663H143.415C143.415 113.663 138.031 88.1542 114.188 89.779C90.3462 91.4039 80.3438 113.663 80.3438 113.663Z" fill="#333333"/>
<path d="M79.5726 130.614C81.2711 130.614 82.6481 128.026 82.6481 124.835C82.6481 121.643 81.2711 119.056 79.5726 119.056C77.874 119.056 76.4971 121.643 76.4971 124.835C76.4971 128.026 77.874 130.614 79.5726 130.614Z" fill="#BE7C5E"/>
<path d="M144.186 130.614C145.885 130.614 147.262 128.026 147.262 124.835C147.262 121.643 145.885 119.056 144.186 119.056C142.488 119.056 141.111 121.643 141.111 124.835C141.111 128.026 142.488 130.614 144.186 130.614Z" fill="#BE7C5E"/>
<path opacity="0.1" d="M80.3438 114.52H143.415C143.415 114.52 138.031 89.0113 114.188 90.6362C90.3462 92.2611 80.3438 114.52 80.3438 114.52Z" fill="black"/>
<path d="M185.908 301.656C203.838 301.656 218.374 287.098 218.374 269.139C218.374 251.181 203.838 236.623 185.908 236.623C167.977 236.623 153.441 251.181 153.441 269.139C153.441 287.098 167.977 301.656 185.908 301.656Z" fill="#BE7C5E"/>
<path d="M206.895 274.871C197.49 277.052 191.005 270.901 188.828 261.467L167.196 180.929C166.16 176.38 166.963 171.605 169.43 167.647C171.897 163.69 175.828 160.87 180.363 159.805C184.905 158.767 189.673 159.572 193.624 162.043C197.576 164.514 200.391 168.45 201.454 172.993L219.127 255.594C221.285 265.056 216.338 272.691 206.895 274.871Z" fill="url(#paint4_linear)"/>
<path d="M199.005 175C197.168 167.037 189.234 162.073 181.283 163.913C173.332 165.753 168.376 173.7 170.213 181.663L190.122 267.963C191.959 275.926 199.894 280.89 207.845 279.05C215.795 277.21 220.752 269.263 218.915 261.3L199.005 175Z" fill="#BE7C5E"/>
<path d="M69.4808 216.884C67.2541 220.398 63.7309 222.888 59.6789 223.812C55.627 224.735 51.3748 224.018 47.8489 221.815L16.7177 201.643C13.2091 199.413 10.7228 195.884 9.80055 191.826C8.87829 187.768 9.59487 183.509 11.7941 179.977C14.0209 176.463 17.5441 173.973 21.596 173.05C25.6479 172.126 29.9001 172.844 33.426 175.046L64.5572 195.218C68.0658 197.449 70.5521 200.977 71.4744 205.035C72.3966 209.094 71.6801 213.352 69.4808 216.884Z" fill="url(#paint5_linear)"/>
<path d="M61.6698 259.588C59.4226 263.139 55.8635 265.656 51.7699 266.588C47.6762 267.52 43.3807 266.791 39.8216 264.562L20.5409 250.474C16.995 248.224 14.4824 244.659 13.5519 240.559C12.6215 236.459 13.3488 232.157 15.575 228.592C17.8222 225.041 21.3813 222.525 25.4749 221.593C29.5686 220.661 33.8641 221.389 37.4232 223.619L56.7039 237.706C60.2498 239.957 62.7624 243.521 63.6929 247.621C64.6233 251.721 63.896 256.023 61.6698 259.588Z" fill="url(#paint6_linear)"/>
<path d="M60.1179 258.542C58.0225 261.855 54.7033 264.202 50.8853 265.072C47.0673 265.941 43.0609 265.261 39.7416 263.182L21.7589 250.032C18.4514 247.933 16.1076 244.609 15.2397 240.785C14.3717 236.961 15.0502 232.948 17.1268 229.624C19.2222 226.311 22.5415 223.964 26.3595 223.095C30.1775 222.225 34.1838 222.905 37.5032 224.985L55.4859 238.12C58.7973 240.219 61.1438 243.546 62.0119 247.374C62.88 251.201 62.199 255.217 60.1179 258.542Z" fill="#BE7C5E"/>
<path d="M67.7784 215.791C65.6831 219.104 62.3638 221.451 58.5458 222.32C54.7278 223.19 50.7215 222.51 47.4021 220.43L18.1097 201.45C14.8021 199.351 12.4584 196.027 11.5905 192.203C10.7225 188.379 11.401 184.366 13.4776 181.042C15.5732 177.723 18.8969 175.371 22.7206 174.501C26.5442 173.632 30.5562 174.315 33.8775 176.403L63.1464 195.397C66.45 197.496 68.7911 200.818 69.6588 204.638C70.5266 208.459 69.8506 212.468 67.7784 215.791Z" fill="#BE7C5E"/>
<path d="M77.5364 174.392C75.2989 177.928 71.7549 180.433 67.6788 181.361C63.6026 182.288 59.3256 181.562 55.7822 179.342L16.3274 153.612C12.794 151.371 10.2905 147.819 9.36429 143.735C8.43809 139.65 9.16463 135.364 11.385 131.815C13.6225 128.278 17.1664 125.773 21.2426 124.845C25.3187 123.918 29.5957 124.644 33.1392 126.864L72.5939 152.594C76.1273 154.835 78.6308 158.387 79.557 162.471C80.4832 166.556 79.7567 170.842 77.5364 174.392Z" fill="url(#paint7_linear)"/>
<path d="M75.439 173.045C73.3436 176.357 70.0243 178.705 66.2063 179.574C62.3883 180.443 58.382 179.764 55.0626 177.684L18.1097 153.588C14.8021 151.49 12.4584 148.165 11.5905 144.341C10.7225 140.517 11.401 136.505 13.4776 133.18C15.5694 129.857 18.8914 127.5 22.7154 126.626C26.5393 125.752 30.5533 126.432 33.8775 128.518L70.8305 152.613C74.1406 154.716 76.484 158.046 77.3478 161.876C78.2115 165.705 77.5252 169.721 75.439 173.045Z" fill="#BE7C5E"/>
</g>
<defs>
<linearGradient id="paint0_linear" x1="39.0926" y1="129.921" x2="39.0926" y2="67.4732" gradientUnits="userSpaceOnUse">
<stop stop-color="#808080" stop-opacity="0.25"/>
<stop offset="0.54" stop-color="#808080" stop-opacity="0.12"/>
<stop offset="1" stop-color="#808080" stop-opacity="0.1"/>
</linearGradient>
<linearGradient id="paint1_linear" x1="112119" y1="100223" x2="112119" y2="69171.6" gradientUnits="userSpaceOnUse">
<stop stop-color="#808080" stop-opacity="0.25"/>
<stop offset="0.54" stop-color="#808080" stop-opacity="0.12"/>
<stop offset="1" stop-color="#808080" stop-opacity="0.1"/>
</linearGradient>
<linearGradient id="paint2_linear" x1="74014.1" y1="180141" x2="165920" y2="59057.2" gradientUnits="userSpaceOnUse">
<stop stop-color="#808080" stop-opacity="0.25"/>
<stop offset="0.54" stop-color="#808080" stop-opacity="0.12"/>
<stop offset="1" stop-color="#808080" stop-opacity="0.1"/>
</linearGradient>
<linearGradient id="paint3_linear" x1="111.39" y1="213.045" x2="111.39" y2="37.8436" gradientUnits="userSpaceOnUse">
<stop stop-color="#FCFDFF"/>
<stop offset="1" stop-color="#B2EBF2"/>
</linearGradient>
<linearGradient id="paint4_linear" x1="41129.7" y1="76415.4" x2="41129.7" y2="47873.5" gradientUnits="userSpaceOnUse">
<stop stop-color="#808080" stop-opacity="0.25"/>
<stop offset="0.54" stop-color="#808080" stop-opacity="0.12"/>
<stop offset="1" stop-color="#808080" stop-opacity="0.1"/>
</linearGradient>
<linearGradient id="paint5_linear" x1="28138.6" y1="28482.8" x2="28138.6" y2="22835.6" gradientUnits="userSpaceOnUse">
<stop stop-color="#808080" stop-opacity="0.25"/>
<stop offset="0.54" stop-color="#808080" stop-opacity="0.12"/>
<stop offset="1" stop-color="#808080" stop-opacity="0.1"/>
</linearGradient>
<linearGradient id="paint6_linear" x1="22733.2" y1="29524.8" x2="22733.2" y2="25072.9" gradientUnits="userSpaceOnUse">
<stop stop-color="#808080" stop-opacity="0.25"/>
<stop offset="0.54" stop-color="#808080" stop-opacity="0.12"/>
<stop offset="1" stop-color="#808080" stop-opacity="0.1"/>
</linearGradient>
<linearGradient id="paint7_linear" x1="32552.6" y1="26429.5" x2="32552.6" y2="19458" gradientUnits="userSpaceOnUse">
<stop stop-color="#808080" stop-opacity="0.25"/>
<stop offset="0.54" stop-color="#808080" stop-opacity="0.12"/>
<stop offset="1" stop-color="#808080" stop-opacity="0.1"/>
</linearGradient>
<clipPath id="clip0">
<rect width="222" height="355" fill="white"/>
</clipPath>
</defs>
</svg>
