<svg width="827" height="823" viewBox="0 0 827 823" fill="none" xmlns="http://www.w3.org/2000/svg">
<path d="M245.751 728.419C-35.528 566.629 -18.8504 175.394 24.6484 0H827V747.19C750.45 808.346 527.03 890.21 245.751 728.419Z" fill="#25D366"/>
<g clip-path="url(#clip0)">
<g opacity="0.5">
<path opacity="0.5" d="M593.358 142.602L331.564 143.239C330.151 143.243 328.752 143.524 327.448 144.067C326.144 144.61 324.96 145.405 323.963 146.406C322.966 147.407 322.177 148.594 321.64 149.9C321.102 151.205 320.828 152.604 320.832 154.016L322.021 643.191C322.024 644.602 322.306 646 322.85 647.302C323.393 648.605 324.189 649.789 325.191 650.784C326.193 651.78 327.381 652.569 328.688 653.105C329.995 653.642 331.395 653.916 332.808 653.912L594.602 653.275C596.016 653.272 597.415 652.99 598.72 652.446C600.025 651.902 601.209 651.107 602.206 650.105C603.203 649.104 603.992 647.916 604.529 646.609C605.066 645.302 605.339 643.903 605.334 642.49L604.145 153.316C604.141 151.905 603.859 150.508 603.314 149.206C602.77 147.904 601.974 146.722 600.973 145.727C599.971 144.732 598.783 143.944 597.477 143.408C596.17 142.872 594.771 142.598 593.358 142.602Z" fill="url(#paint0_linear)"/>
</g>
<path d="M589.566 149.281L335.386 149.901C329.455 149.916 324.658 154.731 324.673 160.657L325.836 636.285C325.851 642.21 330.671 647.002 336.602 646.988L590.782 646.367C596.713 646.353 601.51 641.537 601.495 635.612L600.332 159.984C600.317 154.058 595.497 149.266 589.566 149.281Z" fill="white"/>
<path opacity="0.4" d="M531.756 161.882C530.972 167.154 528.326 171.972 524.295 175.465C520.265 178.958 515.116 180.895 509.781 180.925L414.567 181.153C409.235 181.144 404.083 179.23 400.04 175.758C395.997 172.286 393.33 167.484 392.521 162.22L342.091 162.346C340.716 162.349 339.355 162.623 338.085 163.151C336.816 163.68 335.663 164.453 334.693 165.427C333.723 166.4 332.954 167.555 332.431 168.826C331.907 170.096 331.64 171.457 331.643 172.831L332.737 624.076C332.74 625.451 333.014 626.811 333.544 628.08C334.074 629.348 334.848 630.5 335.824 631.47C336.799 632.439 337.956 633.207 339.229 633.729C340.501 634.252 341.865 634.518 343.24 634.514L584.17 633.932C585.545 633.929 586.906 633.655 588.176 633.127C589.445 632.598 590.598 631.825 591.568 630.851C592.538 629.878 593.307 628.723 593.83 627.452C594.354 626.182 594.621 624.821 594.618 623.447L593.524 172.202C593.521 170.828 593.247 169.468 592.718 168.2C592.189 166.932 591.415 165.78 590.44 164.811C589.465 163.842 588.309 163.074 587.038 162.551C585.766 162.028 584.404 161.761 583.028 161.764L531.756 161.882Z" fill="#25D366"/>
<path d="M489.139 167.601L430.866 168.475C429.996 168.488 429.302 169.203 429.315 170.071L429.325 170.763C429.339 171.632 430.054 172.326 430.924 172.313L489.197 171.439C490.066 171.426 490.761 170.711 490.748 169.842L490.737 169.15C490.724 168.281 490.009 167.588 489.139 167.601Z" fill="#DBDBDB"/>
<path d="M503.814 171.212C505.088 171.193 506.106 170.146 506.086 168.873C506.067 167.6 505.019 166.584 503.745 166.603C502.471 166.622 501.454 167.67 501.473 168.942C501.492 170.215 502.54 171.231 503.814 171.212Z" fill="#DBDBDB"/>
<g opacity="0.5">
<path opacity="0.5" d="M495.254 504.939C495.259 491.514 491.785 478.316 485.169 466.631C478.553 454.946 469.021 445.171 457.502 438.257C445.983 431.344 432.868 427.529 419.434 427.182C406.001 426.835 392.706 429.97 380.845 436.279C368.984 442.589 358.96 451.859 351.749 463.188C344.538 474.516 340.386 487.517 339.697 500.924C339.008 514.332 341.806 527.689 347.817 539.696C353.829 551.702 362.85 561.949 374.002 569.439L374.049 569.786C376.592 572.219 379.591 574.126 382.876 575.394L382.978 575.048C386.623 578.194 401.969 583.173 419.598 583.126H419.983C431.148 583.126 443.273 581.16 453.934 575.394C453.934 575.394 454.029 575.189 454.17 574.804C456.871 573.537 459.349 571.842 461.508 569.786C461.55 569.487 461.592 569.193 461.634 568.905C472.007 561.762 480.486 552.208 486.342 541.065C492.199 529.922 495.257 517.524 495.254 504.939Z" fill="url(#paint1_linear)"/>
</g>
<path d="M417.417 580.373C459.114 580.373 492.916 546.603 492.916 504.947C492.916 463.29 459.114 429.52 417.417 429.52C375.72 429.52 341.918 463.29 341.918 504.947C341.918 546.603 375.72 580.373 417.417 580.373Z" fill="#F5F5F5"/>
<path d="M388.576 535.962C388.576 535.962 370.585 537.433 375.349 570.171C377.812 572.538 380.721 574.394 383.907 575.63L394.024 541.421L388.576 535.962Z" fill="#FDA57D"/>
<path d="M446.95 535.962C446.95 535.962 464.941 537.433 460.178 570.171C457.714 572.538 454.805 574.394 451.619 575.63L441.502 541.405L446.95 535.962Z" fill="#FDA57D"/>
<path d="M389.355 482.308C389.355 482.308 380.797 507.196 376.128 504.836C376.128 504.836 421.18 543.718 460.965 504.836C460.965 504.836 453.958 492.393 443.84 482.285L389.355 482.308Z" fill="#333333"/>
<path d="M418.236 513.41C436.721 513.41 451.706 498.44 451.706 479.972C451.706 461.505 436.721 446.534 418.236 446.534C399.75 446.534 384.765 461.505 384.765 479.972C384.765 498.44 399.75 513.41 418.236 513.41Z" fill="#333333"/>
<path opacity="0.1" d="M446.604 535.962H388.237L382.789 559.292C382.789 559.292 379.592 570.092 383.576 574.843C387.56 579.594 424.739 590.394 452.076 575.63C454.46 569.412 454.737 562.584 452.863 556.193C449.714 545.307 452.076 555.407 452.076 555.407L446.604 535.962Z" fill="black"/>
<path opacity="0.1" d="M447.383 535.962H389.009L383.561 559.292C383.561 559.292 380.364 570.092 384.348 574.843C388.332 579.594 425.511 590.394 452.848 575.63C455.232 569.412 455.509 562.584 453.635 556.193C450.486 545.307 452.848 555.407 452.848 555.407L447.383 535.962Z" fill="black"/>
<path d="M446.95 535.962H388.576L383.128 559.292C383.128 559.292 379.931 570.092 383.915 574.843C387.899 579.594 425.078 590.394 452.414 575.63C454.799 569.412 455.075 562.584 453.202 556.193C450.052 545.307 452.414 555.407 452.414 555.407L446.95 535.962Z" fill="#25D366"/>
<path opacity="0.1" d="M406.48 516.604H429.849V539.179C429.849 540.197 429.648 541.204 429.259 542.144C428.869 543.084 428.298 543.938 427.578 544.658C426.857 545.377 426.002 545.948 425.061 546.337C424.121 546.727 423.112 546.927 422.094 546.927H414.22C412.163 546.927 410.191 546.111 408.736 544.658C407.282 543.205 406.465 541.234 406.465 539.179V516.604H406.48Z" fill="black"/>
<path d="M406.48 515.747H429.849V538.322C429.849 539.339 429.648 540.347 429.259 541.287C428.869 542.227 428.298 543.081 427.578 543.8C426.857 544.52 426.002 545.091 425.061 545.48C424.121 545.869 423.112 546.07 422.094 546.07H414.22C412.163 546.07 410.191 545.253 408.736 543.8C407.282 542.347 406.465 540.377 406.465 538.322V515.747H406.48Z" fill="#FDA57D"/>
<path opacity="0.1" d="M406.528 519.105C414.054 521.915 422.339 521.937 429.881 519.168V516.305H406.528V519.105Z" fill="black"/>
<path d="M418.236 520.671C436.721 520.671 451.706 505.7 451.706 487.233C451.706 468.765 436.721 453.794 418.236 453.794C399.75 453.794 384.765 468.765 384.765 487.233C384.765 505.7 399.75 520.671 418.236 520.671Z" fill="#FDA57D"/>
<path d="M386.245 474.529H450.068C450.068 474.529 444.62 448.784 420.495 450.428C396.371 452.072 386.245 474.529 386.245 474.529Z" fill="#333333"/>
<path d="M385.466 491.637C387.184 491.637 388.576 489.028 388.576 485.809C388.576 482.59 387.184 479.98 385.466 479.98C383.748 479.98 382.356 482.59 382.356 485.809C382.356 489.028 383.748 491.637 385.466 491.637Z" fill="#FDA57D"/>
<path d="M450.84 491.637C452.557 491.637 453.95 489.028 453.95 485.809C453.95 482.59 452.557 479.98 450.84 479.98C449.122 479.98 447.73 482.59 447.73 485.809C447.73 489.028 449.122 491.637 450.84 491.637Z" fill="#FDA57D"/>
<path opacity="0.1" d="M386.245 475.394H450.068C450.068 475.394 444.62 449.649 420.495 451.293C396.371 452.937 386.245 475.394 386.245 475.394Z" fill="black"/>
<g opacity="0.5">
<path opacity="0.5" d="M432.164 299.811C432.159 286.386 435.634 273.188 442.249 261.503C448.865 249.818 458.397 240.043 469.916 233.13C481.435 226.216 494.55 222.401 507.984 222.054C521.417 221.708 534.712 224.842 546.573 231.151C558.434 237.461 568.458 246.731 575.669 258.06C582.88 269.388 587.032 282.389 587.721 295.796C588.41 309.204 585.612 322.561 579.601 334.568C573.589 346.574 564.568 356.822 553.416 364.312L553.369 364.658C550.832 367.114 547.832 369.042 544.543 370.329L544.44 369.983C540.795 373.129 525.449 378.108 507.82 378.061H507.435C496.27 378.061 484.145 376.095 473.484 370.329C473.484 370.329 473.39 370.124 473.248 369.739C470.547 368.472 468.069 366.777 465.91 364.721C465.868 364.422 465.826 364.128 465.784 363.84C455.403 356.691 446.918 347.127 441.061 335.972C435.204 324.817 432.151 312.407 432.164 299.811Z" fill="url(#paint2_linear)"/>
</g>
<path d="M509.994 375.245C551.691 375.245 585.493 341.476 585.493 299.819C585.493 258.162 551.691 224.392 509.994 224.392C468.296 224.392 434.494 258.162 434.494 299.819C434.494 341.476 468.296 375.245 509.994 375.245Z" fill="#F5F5F5"/>
<path d="M480.397 328.545C480.397 328.545 462.406 330.016 467.17 362.754C469.634 365.116 472.543 366.966 475.728 368.197L485.845 333.988L480.397 328.545Z" fill="#BE7C5E"/>
<path d="M538.763 328.545C538.763 328.545 556.754 330.016 551.991 362.754C549.526 365.116 546.617 366.966 543.432 368.197L533.315 333.988L538.763 328.545Z" fill="#BE7C5E"/>
<path d="M481.169 274.892C481.169 274.892 479.783 278.919 477.822 283.544C473.539 293.77 478.429 332.871 488.672 337.033C500.167 341.752 515.285 344.71 530.992 338.991C544.637 334.02 548.849 289.436 539.196 278.62C538.063 277.346 536.882 276.079 535.645 274.852L481.169 274.892Z" fill="#333333"/>
<path d="M510.049 306.001C528.534 306.001 543.519 291.031 543.519 272.563C543.519 254.096 528.534 239.125 510.049 239.125C491.563 239.125 476.578 254.096 476.578 272.563C476.578 291.031 491.563 306.001 510.049 306.001Z" fill="#333333"/>
<path opacity="0.1" d="M538.425 328.545H480.051L474.602 351.876C474.602 351.876 471.405 362.675 475.389 367.426C479.373 372.178 516.552 382.977 543.889 368.213C546.273 361.995 546.55 355.167 544.676 348.776C541.527 337.89 543.889 347.99 543.889 347.99L538.425 328.545Z" fill="black"/>
<path opacity="0.1" d="M539.196 328.545H480.822L475.374 351.876C475.374 351.876 472.177 362.675 476.161 367.426C480.145 372.178 517.324 382.977 544.661 368.213C547.045 361.995 547.322 355.167 545.448 348.776C542.299 337.89 544.661 347.99 544.661 347.99L539.196 328.545Z" fill="black"/>
<path d="M538.763 328.545H480.397L474.949 351.876C474.949 351.876 471.752 362.675 475.736 367.426C479.72 372.178 516.899 382.977 544.235 368.213C546.62 361.995 546.896 355.167 545.023 348.776C541.873 337.89 544.235 347.99 544.235 347.99L538.763 328.545Z" fill="#F55F44"/>
<path opacity="0.1" d="M498.293 309.195H521.646V331.77C521.646 333.825 520.829 335.796 519.375 337.249C517.92 338.702 515.948 339.518 513.891 339.518H506.017C503.961 339.518 501.988 338.702 500.533 337.249C499.079 335.796 498.262 333.825 498.262 331.77V309.195H498.293Z" fill="black"/>
<path d="M498.293 308.33H521.646V330.905C521.646 332.96 520.829 334.931 519.375 336.384C517.92 337.837 515.948 338.653 513.891 338.653H506.017C503.961 338.653 501.988 337.837 500.533 336.384C499.079 334.931 498.262 332.96 498.262 330.905V308.33H498.293Z" fill="#BE7C5E"/>
<path opacity="0.1" d="M498.349 311.688C505.875 314.498 514.16 314.52 521.701 311.751V308.888H498.349V311.688Z" fill="black"/>
<path d="M510.049 313.254C528.534 313.254 543.519 298.283 543.519 279.816C543.519 261.348 528.534 246.378 510.049 246.378C491.563 246.378 476.578 261.348 476.578 279.816C476.578 298.283 491.563 313.254 510.049 313.254Z" fill="#BE7C5E"/>
<path d="M478.059 267.12H541.881C541.881 267.12 536.433 241.375 512.308 243.019C488.184 244.663 478.059 267.12 478.059 267.12Z" fill="#333333"/>
<path d="M477.279 284.221C478.997 284.221 480.389 281.611 480.389 278.392C480.389 275.173 478.997 272.563 477.279 272.563C475.561 272.563 474.169 275.173 474.169 278.392C474.169 281.611 475.561 284.221 477.279 284.221Z" fill="#BE7C5E"/>
<path d="M542.653 284.221C544.371 284.221 545.763 281.611 545.763 278.392C545.763 275.173 544.371 272.563 542.653 272.563C540.935 272.563 539.543 275.173 539.543 278.392C539.543 281.611 540.935 284.221 542.653 284.221Z" fill="#BE7C5E"/>
<path opacity="0.1" d="M478.059 267.985H541.881C541.881 267.985 536.433 242.24 512.308 243.884C488.184 245.528 478.059 267.985 478.059 267.985Z" fill="black"/>
<g opacity="0.5">
<path opacity="0.5" d="M162.937 232.368V344.631H339.981C339.981 344.631 353.051 370.329 375.522 377.802C375.522 377.802 368.349 359.6 375.837 344.631H425.125V232.368H162.937Z" fill="url(#paint3_linear)"/>
</g>
<path d="M170.023 236.215V342.405H347.177C347.177 342.405 347.177 363.643 368.436 370.722C368.436 370.722 361.349 356.564 368.436 342.405H418.039V236.215H170.023Z" fill="white"/>
<path d="M333.005 257.453H191.281V271.611H333.005V257.453Z" fill="#25D366"/>
<path d="M382.608 278.691H191.281V292.85H382.608V278.691Z" fill="#25D366"/>
<path d="M361.349 299.929H191.281V314.088H361.349V299.929Z" fill="#25D366"/>
<g opacity="0.5">
<path opacity="0.5" d="M765.261 448.682V560.944H588.225C588.225 560.944 575.155 586.642 552.676 594.115C552.676 594.115 559.849 575.913 552.361 560.944H503.073V448.682H765.261Z" fill="url(#paint4_linear)"/>
</g>
<path d="M758.175 452.528V558.718H581.021C581.021 558.718 581.021 579.956 559.762 587.036C559.762 587.036 566.848 572.877 559.762 558.718H510.159V452.528H758.175Z" fill="white"/>
<path d="M681.014 473.766H539.291V487.925H681.014V473.766Z" fill="#25D366"/>
<path d="M730.617 495.004H539.291V509.163H730.617V495.004Z" fill="#25D366"/>
<path d="M709.359 516.242H539.291V530.401H709.359V516.242Z" fill="#25D366"/>
<g opacity="0.5">
<path opacity="0.5" d="M227.5 669.628H225.138V683H227.5V669.628Z" fill="#47E6B1"/>
<path opacity="0.5" d="M233.011 677.494V675.134H219.626V677.494H233.011Z" fill="#47E6B1"/>
</g>
<g opacity="0.5">
<path opacity="0.5" d="M659.756 259.026H657.394V272.398H659.756V259.026Z" fill="#47E6B1"/>
<path opacity="0.5" d="M665.267 266.892V264.532H651.882V266.892H665.267Z" fill="#47E6B1"/>
</g>
<g opacity="0.5">
<path opacity="0.5" d="M710.146 589.395H707.784V602.767H710.146V589.395Z" fill="#47E6B1"/>
<path opacity="0.5" d="M715.658 597.261V594.902H702.273V597.261H715.658Z" fill="#47E6B1"/>
</g>
<g opacity="0.5">
<path opacity="0.5" d="M561.337 108H558.975V121.372H561.337V108Z" fill="#47E6B1"/>
<path opacity="0.5" d="M566.848 115.866V113.506H553.463V115.866H566.848Z" fill="#47E6B1"/>
</g>
<path opacity="0.5" d="M362.688 668.299C362.043 668.009 361.527 667.494 361.237 666.851C360.947 666.207 360.903 665.48 361.113 664.806C361.147 664.701 361.168 664.593 361.176 664.484C361.196 664.172 361.115 663.863 360.945 663.601C360.775 663.34 360.524 663.14 360.231 663.032C359.939 662.925 359.618 662.914 359.319 663.003C359.02 663.091 358.757 663.274 358.57 663.524C358.507 663.612 358.454 663.707 358.413 663.807C358.123 664.451 357.608 664.967 356.963 665.256C356.319 665.546 355.591 665.59 354.917 665.38C354.812 665.347 354.704 665.326 354.594 665.317C354.282 665.297 353.973 665.378 353.711 665.548C353.449 665.718 353.249 665.968 353.141 666.261C353.033 666.554 353.023 666.874 353.112 667.173C353.2 667.472 353.383 667.734 353.633 667.921C353.721 667.984 353.817 668.037 353.917 668.078C354.561 668.368 355.077 668.883 355.367 669.526C355.658 670.17 355.702 670.897 355.491 671.571C355.458 671.675 355.437 671.784 355.429 671.893C355.408 672.205 355.49 672.514 355.66 672.776C355.83 673.037 356.08 673.237 356.373 673.345C356.666 673.452 356.986 673.463 357.286 673.374C357.585 673.286 357.848 673.103 358.035 672.853C358.098 672.765 358.151 672.67 358.192 672.57C358.482 671.926 358.997 671.41 359.641 671.121C360.285 670.831 361.013 670.787 361.688 670.997C361.793 671.03 361.901 671.051 362.011 671.06C362.322 671.08 362.632 670.999 362.894 670.829C363.156 670.658 363.355 670.408 363.463 670.116C363.571 669.823 363.582 669.503 363.493 669.204C363.404 668.905 363.221 668.643 362.971 668.456C362.883 668.393 362.788 668.34 362.688 668.299Z" fill="#4D8AF0"/>
<path opacity="0.5" d="M204.588 418.673C203.943 418.384 203.427 417.869 203.137 417.225C202.847 416.582 202.803 415.854 203.013 415.181C203.047 415.076 203.068 414.968 203.076 414.858C203.096 414.547 203.015 414.237 202.845 413.976C202.674 413.714 202.424 413.515 202.131 413.407C201.838 413.299 201.518 413.289 201.219 413.377C200.919 413.466 200.657 413.649 200.47 413.898C200.406 413.986 200.354 414.081 200.312 414.182C200.023 414.825 199.507 415.341 198.863 415.631C198.219 415.921 197.491 415.965 196.817 415.755C196.712 415.721 196.603 415.7 196.494 415.692C196.182 415.672 195.872 415.753 195.611 415.923C195.349 416.093 195.149 416.343 195.041 416.636C194.933 416.928 194.923 417.248 195.011 417.547C195.1 417.846 195.283 418.109 195.533 418.295C195.621 418.359 195.716 418.412 195.817 418.453C196.461 418.742 196.977 419.257 197.267 419.901C197.557 420.544 197.602 421.271 197.391 421.945C197.358 422.05 197.336 422.158 197.328 422.268C197.295 422.585 197.368 422.904 197.535 423.175C197.702 423.447 197.954 423.655 198.252 423.769C198.55 423.883 198.877 423.895 199.182 423.805C199.488 423.714 199.755 423.525 199.942 423.267C200.006 423.179 200.058 423.084 200.1 422.984C200.389 422.34 200.905 421.824 201.549 421.534C202.193 421.244 202.921 421.2 203.596 421.41C203.7 421.444 203.809 421.465 203.918 421.473C204.23 421.493 204.54 421.412 204.802 421.242C205.063 421.072 205.263 420.822 205.371 420.53C205.479 420.237 205.489 419.917 205.401 419.618C205.312 419.319 205.129 419.056 204.879 418.87C204.791 418.792 204.693 418.726 204.588 418.673Z" fill="#4D8AF0"/>
<path opacity="0.5" d="M290.409 487.107C289.765 486.818 289.248 486.302 288.958 485.659C288.668 485.015 288.624 484.288 288.834 483.614C288.868 483.51 288.889 483.401 288.897 483.292C288.917 482.98 288.836 482.671 288.666 482.409C288.496 482.148 288.246 481.948 287.953 481.841C287.66 481.733 287.34 481.722 287.04 481.811C286.741 481.899 286.478 482.082 286.291 482.332C286.228 482.42 286.175 482.515 286.134 482.615C285.844 483.259 285.329 483.775 284.685 484.065C284.04 484.354 283.312 484.398 282.638 484.188C282.533 484.155 282.425 484.134 282.315 484.125C282.003 484.105 281.694 484.186 281.432 484.357C281.17 484.527 280.97 484.777 280.862 485.069C280.754 485.362 280.744 485.682 280.833 485.981C280.921 486.28 281.104 486.542 281.354 486.729C281.442 486.792 281.538 486.845 281.638 486.886C282.282 487.176 282.798 487.691 283.089 488.334C283.379 488.978 283.423 489.705 283.213 490.379C283.179 490.484 283.158 490.592 283.15 490.701C283.117 491.018 283.189 491.337 283.356 491.609C283.523 491.88 283.775 492.089 284.073 492.203C284.371 492.317 284.698 492.329 285.004 492.238C285.309 492.147 285.576 491.958 285.764 491.7C285.827 491.612 285.88 491.517 285.921 491.417C286.211 490.773 286.726 490.258 287.37 489.968C288.014 489.678 288.742 489.634 289.417 489.844C289.522 489.878 289.63 489.899 289.74 489.907C290.051 489.927 290.361 489.846 290.623 489.676C290.885 489.506 291.084 489.256 291.192 488.963C291.3 488.67 291.311 488.351 291.222 488.052C291.133 487.753 290.95 487.49 290.7 487.303C290.612 487.226 290.514 487.16 290.409 487.107Z" fill="#4D8AF0"/>
<path opacity="0.5" d="M780.142 672.743C779.497 672.454 778.981 671.939 778.691 671.295C778.401 670.652 778.357 669.924 778.567 669.25C778.601 669.146 778.622 669.037 778.63 668.928C778.65 668.617 778.569 668.307 778.399 668.046C778.229 667.784 777.978 667.585 777.685 667.477C777.392 667.369 777.072 667.358 776.773 667.447C776.474 667.535 776.211 667.718 776.024 667.968C775.961 668.056 775.908 668.151 775.866 668.251C775.577 668.895 775.061 669.411 774.417 669.701C773.773 669.99 773.045 670.035 772.371 669.825C772.266 669.791 772.157 669.77 772.048 669.762C771.736 669.742 771.426 669.823 771.165 669.993C770.903 670.163 770.703 670.413 770.595 670.705C770.487 670.998 770.477 671.318 770.565 671.617C770.654 671.916 770.837 672.178 771.087 672.365C771.175 672.429 771.27 672.481 771.371 672.523C772.015 672.812 772.531 673.327 772.821 673.97C773.111 674.614 773.156 675.341 772.945 676.015C772.912 676.12 772.891 676.228 772.882 676.338C772.849 676.654 772.922 676.973 773.089 677.245C773.256 677.516 773.508 677.725 773.806 677.839C774.104 677.953 774.431 677.965 774.736 677.874C775.042 677.784 775.309 677.594 775.496 677.337C775.56 677.249 775.613 677.154 775.654 677.053C775.943 676.41 776.459 675.894 777.103 675.604C777.747 675.314 778.475 675.27 779.15 675.48C779.254 675.514 779.363 675.535 779.473 675.543C779.784 675.563 780.094 675.482 780.356 675.312C780.617 675.142 780.817 674.892 780.925 674.599C781.033 674.307 781.044 673.987 780.955 673.688C780.866 673.389 780.683 673.126 780.433 672.939C780.345 672.862 780.247 672.796 780.142 672.743Z" fill="#4D8AF0"/>
<path opacity="0.5" d="M696.761 163.062C699.37 163.062 701.485 160.949 701.485 158.342C701.485 155.735 699.37 153.622 696.761 153.622C694.152 153.622 692.037 155.735 692.037 158.342C692.037 160.949 694.152 163.062 696.761 163.062Z" fill="#4D8AF0"/>
<path opacity="0.5" d="M240.885 172.501C243.494 172.501 245.609 170.388 245.609 167.781C245.609 165.175 243.494 163.062 240.885 163.062C238.276 163.062 236.16 165.175 236.16 167.781C236.16 170.388 238.276 172.501 240.885 172.501Z" fill="#47E6B1"/>
<path opacity="0.5" d="M701.485 384.881C704.094 384.881 706.209 382.768 706.209 380.161C706.209 377.555 704.094 375.442 701.485 375.442C698.876 375.442 696.761 377.555 696.761 380.161C696.761 382.768 698.876 384.881 701.485 384.881Z" fill="#F55F44"/>
</g>
<defs>
<linearGradient id="paint0_linear" x1="351.717" y1="662.769" x2="574.092" y2="133.574" gradientUnits="userSpaceOnUse">
<stop stop-color="#808080" stop-opacity="0.25"/>
<stop offset="0.54" stop-color="#808080" stop-opacity="0.12"/>
<stop offset="1" stop-color="#808080" stop-opacity="0.1"/>
</linearGradient>
<linearGradient id="paint1_linear" x1="83338.8" y1="107825" x2="83338.8" y2="76896.3" gradientUnits="userSpaceOnUse">
<stop stop-color="#808080" stop-opacity="0.25"/>
<stop offset="0.54" stop-color="#808080" stop-opacity="0.12"/>
<stop offset="1" stop-color="#808080" stop-opacity="0.1"/>
</linearGradient>
<linearGradient id="paint2_linear" x1="93430.8" y1="66973.1" x2="93430.8" y2="36031.7" gradientUnits="userSpaceOnUse">
<stop stop-color="#808080" stop-opacity="0.25"/>
<stop offset="0.54" stop-color="#808080" stop-opacity="0.12"/>
<stop offset="1" stop-color="#808080" stop-opacity="0.1"/>
</linearGradient>
<linearGradient id="paint3_linear" x1="98876.8" y1="62405.1" x2="98876.8" y2="35516" gradientUnits="userSpaceOnUse">
<stop stop-color="#808080" stop-opacity="0.25"/>
<stop offset="0.54" stop-color="#808080" stop-opacity="0.12"/>
<stop offset="1" stop-color="#808080" stop-opacity="0.1"/>
</linearGradient>
<linearGradient id="paint4_linear" x1="-866023" y1="102616" x2="-866023" y2="75726.5" gradientUnits="userSpaceOnUse">
<stop stop-color="#808080" stop-opacity="0.25"/>
<stop offset="0.54" stop-color="#808080" stop-opacity="0.12"/>
<stop offset="1" stop-color="#808080" stop-opacity="0.1"/>
</linearGradient>
<clipPath id="clip0">
<rect width="622" height="575" fill="white" transform="translate(159 108)"/>
</clipPath>
</defs>
</svg>
