<svg width="352" height="340" viewBox="0 0 352 340" fill="none" xmlns="http://www.w3.org/2000/svg">
<path d="M327.734 66.2251C341.323 86.0432 338.316 111.716 338.316 111.716C338.316 111.716 313.278 105.258 299.689 85.4395C286.101 65.6214 289.108 39.9485 289.108 39.9485C289.108 39.9485 314.146 46.407 327.734 66.2251Z" fill="#2F2E41"/>
<path d="M317.957 70.0092C319.547 93.9828 337.799 112.293 337.799 112.293C337.799 112.293 353.473 91.7344 351.883 67.7608C350.293 43.7873 332.041 25.4771 332.041 25.4771C332.041 25.4771 316.367 46.0357 317.957 70.0092Z" fill="#25D366"/>
<path d="M161.947 0.494211L346.434 93.2118C347.968 93.9827 349.24 95.1889 350.092 96.6794C350.943 98.1698 351.335 99.8782 351.22 101.591L340.501 260.299C340.453 261.011 340.229 261.7 339.85 262.305C339.471 262.909 338.948 263.41 338.327 263.763C337.707 264.116 337.009 264.31 336.296 264.328C335.582 264.346 334.875 264.186 334.238 263.865L145.544 167.602L155.231 4.36313C155.277 3.59634 155.512 2.85285 155.916 2.19944C156.32 1.54603 156.88 1.00316 157.546 0.619596C158.212 0.236027 158.963 0.0237679 159.731 0.00188298C160.499 -0.020002 161.26 0.149172 161.947 0.494211Z" fill="#D0CDE1"/>
<path d="M164.07 3.72841L344.026 94.1686C345.522 94.9206 346.763 96.0972 347.594 97.551C348.424 99.0048 348.807 100.671 348.694 102.342L338.239 257.152C338.192 257.847 337.973 258.518 337.604 259.108C337.234 259.698 336.723 260.186 336.118 260.531C335.513 260.875 334.833 261.064 334.137 261.082C333.441 261.099 332.751 260.944 332.13 260.63L148.07 166.731L157.52 7.50231C157.564 6.75435 157.794 6.02912 158.188 5.39175C158.582 4.75439 159.128 4.22486 159.778 3.85072C160.427 3.47657 161.159 3.26952 161.908 3.24817C162.658 3.22683 163.4 3.39184 164.07 3.72841Z" fill="#3F3D56"/>
<path d="M171.957 15.7409L335.081 97.7223C336.438 98.4039 337.563 99.4705 338.315 100.788C339.068 102.106 339.415 103.617 339.313 105.131L329.835 245.462C329.793 246.091 329.595 246.701 329.26 247.235C328.924 247.769 328.462 248.212 327.913 248.525C327.365 248.837 326.748 249.008 326.117 249.024C325.486 249.04 324.861 248.899 324.298 248.614L157.453 163.498L166.019 19.1619C166.059 18.4839 166.267 17.8265 166.624 17.2487C166.982 16.671 167.477 16.191 168.066 15.8518C168.654 15.5127 169.318 15.325 169.997 15.3056C170.676 15.2863 171.35 15.4359 171.957 15.7409Z" fill="white"/>
<path d="M3.63668 245.696L188.36 338.69C190.079 339.554 191.977 340.002 193.901 340C195.825 339.997 197.722 339.544 199.439 338.675L336.092 269.332C337.694 267.731 337.47 265.357 336.958 263.575C336.709 262.712 336.37 261.878 335.947 261.086L317.326 251.295L160.759 173.208L151.405 168.244C148.929 166.933 146.171 166.242 143.369 166.231C140.567 166.22 137.804 166.888 135.317 168.179L3.57889 236.584C2.74074 237.017 2.03882 237.674 1.55077 238.481C1.06273 239.288 0.807597 240.214 0.813579 241.158C0.819562 242.101 1.08644 243.024 1.58468 243.825C2.08293 244.626 2.79311 245.274 3.63668 245.696Z" fill="#D0CDE1"/>
<path opacity="0.1" d="M3.63668 245.696L188.36 338.69C190.079 339.554 191.977 340.003 193.901 340C195.825 339.997 197.722 339.544 199.439 338.675L336.092 269.332C337.694 267.731 337.47 265.357 336.958 263.575L200.713 334.364C199.051 335.228 197.207 335.687 195.334 335.703C193.46 335.719 191.609 335.292 189.932 334.457L0.879477 240.307C0.701741 241.382 0.873648 242.485 1.36994 243.455C1.86624 244.426 2.66073 245.211 3.63668 245.696Z" fill="black"/>
<path opacity="0.1" d="M178.968 273.559L119.145 243.34C117.941 242.732 116.608 242.422 115.258 242.437C113.909 242.453 112.583 242.793 111.393 243.428L76.6896 261.961C76.2886 262.175 75.9542 262.495 75.7227 262.887C75.4913 263.278 75.3717 263.725 75.3771 264.179C75.3824 264.634 75.5125 265.078 75.7532 265.463C75.9938 265.849 76.3357 266.161 76.7416 266.366L137.737 297.112C138.75 297.623 139.873 297.876 141.007 297.85C142.141 297.824 143.251 297.519 144.239 296.963L179.081 277.341C179.421 277.15 179.702 276.869 179.893 276.53C180.085 276.191 180.18 275.805 180.168 275.416C180.157 275.026 180.039 274.647 179.827 274.32C179.616 273.993 179.319 273.73 178.968 273.559Z" fill="black"/>
<path opacity="0.1" d="M319.86 268.505L255.485 302.691C254.745 303.084 253.92 303.294 253.081 303.303C252.243 303.311 251.414 303.118 250.666 302.74L68.7792 210.794C68.2667 210.535 67.8365 210.139 67.5367 209.649C67.237 209.159 67.0795 208.596 67.082 208.022C67.0844 207.448 67.2467 206.886 67.5507 206.399C67.8547 205.912 68.2883 205.519 68.803 205.264L131.667 174.162C132.614 173.693 133.658 173.451 134.715 173.455C135.772 173.458 136.814 173.708 137.758 174.183L319.832 265.885C320.073 266.007 320.277 266.193 320.42 266.422C320.563 266.652 320.64 266.916 320.643 267.187C320.646 267.457 320.575 267.723 320.436 267.956C320.298 268.188 320.099 268.378 319.86 268.505Z" fill="black"/>
<path d="M217.161 98.0153L216.838 98.6606L276.023 128.242L276.346 127.596L217.161 98.0153Z" fill="#25D366"/>
<path d="M217.156 106.691L216.827 107.333L276.028 137.604L276.357 136.962L217.156 106.691Z" fill="#25D366"/>
<path d="M227.993 123.265L227.664 123.907L261.583 141.232L261.911 140.59L227.993 123.265Z" fill="#25D366"/>
<path d="M162.066 55.1771L156.838 67.6057L200.963 90.7585L215.829 47.2717" fill="#F2F2F2"/>
<path d="M199.946 83.1329L219.439 37.2833L174.637 15.2454L155.821 59.9801L199.946 83.1329Z" fill="#25D366"/>
<path d="M173.578 32.7785L173.25 33.4211L207.168 50.7458L207.497 50.1032L173.578 32.7785Z" fill="white"/>
<path d="M171.035 38.8786L170.707 39.5212L204.626 56.8459L204.954 56.2033L171.035 38.8786Z" fill="white"/>
</svg>
