<svg width="367" height="430" viewBox="0 0 367 430" fill="none" xmlns="http://www.w3.org/2000/svg">
<g clip-path="url(#clip0)">
<g opacity="0.5">
<path opacity="0.5" d="M208.433 0.308319L8.21328 0.793728C6.03155 0.798113 3.94084 1.66689 2.40071 3.2091C0.860579 4.75131 -0.00292745 6.84073 7.45699e-06 9.01809L0.911977 377.338C0.914876 378.417 1.13063 379.484 1.5469 380.48C1.96317 381.475 2.57182 382.379 3.33808 383.139C4.10435 383.9 5.01322 384.503 6.01283 384.913C7.01244 385.323 8.08318 385.532 9.16395 385.529L209.383 385.044C211.565 385.038 213.655 384.168 215.194 382.625C216.734 381.082 217.596 378.992 217.591 376.814L216.663 8.49407C216.655 6.32054 215.785 4.23853 214.242 2.70419C212.7 1.16985 210.611 0.308307 208.433 0.308319Z" fill="url(#paint0_linear)"/>
<path opacity="0.5" d="M206.209 -0.0047891L10.4614 0.472552C6.29771 0.482705 2.93064 3.85946 2.94081 8.01474L3.83381 372.743C3.84398 376.898 7.22754 380.258 11.3912 380.248L207.139 379.771C211.302 379.761 214.669 376.384 214.659 372.229L213.766 7.50063C213.756 3.34535 210.373 -0.0149424 206.209 -0.0047891Z" fill="white"/>
<path opacity="0.5" d="M208.715 105.234L208.505 17.5299C208.499 15.411 207.65 13.3812 206.145 11.8866C204.64 10.392 202.602 9.55486 200.479 9.55925L161.32 9.65302C160.721 13.6818 158.697 17.3636 155.614 20.0325C152.531 22.7014 148.593 24.1812 144.512 24.2042L71.6922 24.3807C67.611 24.3778 63.6656 22.9174 60.5696 20.2637C57.4736 17.61 55.4314 13.9381 54.8124 9.91228L16.2387 10.006C14.1156 10.0119 12.0817 10.8588 10.584 12.3607C9.0864 13.8626 8.2476 15.8964 8.252 18.0153L8.46757 106.459L9.09213 362.766C9.10237 364.884 9.95521 366.912 11.4632 368.404C12.9712 369.895 15.011 370.728 17.1341 370.72L201.375 370.273C203.491 370.261 205.517 369.414 207.009 367.916C208.502 366.419 209.339 364.392 209.339 362.28L208.715 105.234Z" fill="#BBBBBB"/>
<path opacity="0.5" d="M128.824 13.9879L84.0597 14.6586C83.4492 14.6677 82.9618 15.169 82.971 15.7782L82.9818 16.5007C82.991 17.1099 83.4933 17.5964 84.1037 17.5872L128.868 16.9166C129.479 16.9075 129.966 16.4062 129.957 15.797L129.946 15.0745C129.937 14.4652 129.435 13.9788 128.824 13.9879Z" fill="#DBDBDB"/>
<path opacity="0.5" d="M139.958 16.7507C140.932 16.7361 141.709 15.9366 141.694 14.9649C141.68 13.9932 140.879 13.2173 139.905 13.2319C138.931 13.2464 138.154 14.046 138.168 15.0177C138.183 15.9894 138.984 16.7653 139.958 16.7507Z" fill="#DBDBDB"/>
<path opacity="0.5" d="M189.961 57.1017H91.8053V64.9123H189.961V57.1017Z" fill="#E0E0E0"/>
<path opacity="0.5" d="M189.961 72.723H91.8053V80.5337H189.961V72.723Z" fill="#E0E0E0"/>
<path opacity="0.5" d="M43.1612 84.1852C53.3994 84.1852 61.6991 75.8627 61.6991 65.5963C61.6991 55.3299 53.3994 47.0074 43.1612 47.0074C32.923 47.0074 24.6233 55.3299 24.6233 65.5963C24.6233 75.8627 32.923 84.1852 43.1612 84.1852Z" fill="#F5F5F5"/>
<path opacity="0.5" d="M51.1479 78.6086H35.0695C34.2981 78.6144 33.5396 78.806 32.8583 79.1671C32.177 79.5282 31.5931 80.0481 31.1563 80.6826C34.7691 82.7511 38.8571 83.8505 43.0221 83.8737C47.1872 83.8969 51.2872 82.8431 54.9229 80.8149C54.5146 80.1742 53.9592 79.6399 53.3027 79.2562C52.6462 78.8724 51.9075 78.6504 51.1479 78.6086Z" fill="#25D366"/>
<path opacity="0.5" d="M35.2022 66.0707C35.2022 66.0707 32.8476 72.9105 31.5598 72.2707C31.5598 72.2707 43.9626 82.9607 54.9119 72.2707C53.5942 70.0235 52.0113 67.9419 50.1972 66.0707H35.2022Z" fill="#333333"/>
<path opacity="0.5" d="M43.1501 74.626C48.2387 74.626 52.3638 70.5092 52.3638 65.4308C52.3638 60.3525 48.2387 56.2357 43.1501 56.2357C38.0615 56.2357 33.9364 60.3525 33.9364 65.4308C33.9364 70.5092 38.0615 74.626 43.1501 74.626Z" fill="#333333"/>
<path opacity="0.1" d="M39.9112 75.4203H46.3393V77.9136C46.3393 78.6948 46.0283 79.444 45.4748 79.9964C44.9213 80.5488 44.1706 80.8591 43.3878 80.8591H42.8351C42.0523 80.8591 41.3016 80.5488 40.7481 79.9964C40.1946 79.444 39.8836 78.6948 39.8836 77.9136V75.4203H39.9112Z" fill="black"/>
<path opacity="0.5" d="M40.5911 75.2659H45.665C45.8453 75.2659 46.0182 75.3374 46.1457 75.4646C46.2732 75.5918 46.3448 75.7644 46.3448 75.9443V77.7757C46.3448 78.5569 46.0338 79.3061 45.4803 79.8585C44.9268 80.4109 44.1761 80.7212 43.3933 80.7212H42.8406C42.0617 80.7154 41.3166 80.4025 40.7679 79.8507C40.2191 79.2989 39.9112 78.553 39.9112 77.7757V75.9609C39.909 75.8704 39.925 75.7804 39.9582 75.6962C39.9913 75.6119 40.0411 75.5352 40.1044 75.4704C40.1678 75.4056 40.2434 75.3542 40.327 75.3191C40.4106 75.2839 40.5004 75.2658 40.5911 75.2659Z" fill="#FDA57D"/>
<path opacity="0.1" d="M39.9278 76.1926C42.0016 76.9597 44.2821 76.9597 46.3559 76.1926V75.4479H39.9278V76.1926Z" fill="black"/>
<path opacity="0.5" d="M43.1501 76.6228C48.2387 76.6228 52.3638 72.506 52.3638 67.4276C52.3638 62.3493 48.2387 58.2325 43.1501 58.2325C38.0615 58.2325 33.9364 62.3493 33.9364 67.4276C33.9364 72.506 38.0615 76.6228 43.1501 76.6228Z" fill="#FDA57D"/>
<path opacity="0.5" d="M34.3455 63.936H51.9106C51.9106 63.936 50.4128 56.859 43.7692 57.3168C37.1256 57.7746 34.3455 63.936 34.3455 63.936Z" fill="#333333"/>
<path opacity="0.5" d="M34.1299 68.6412C34.603 68.6412 34.9866 67.9225 34.9866 67.036C34.9866 66.1495 34.603 65.4308 34.1299 65.4308C33.6568 65.4308 33.2732 66.1495 33.2732 67.036C33.2732 67.9225 33.6568 68.6412 34.1299 68.6412Z" fill="#FDA57D"/>
<path opacity="0.5" d="M52.1262 68.6412C52.5993 68.6412 52.9829 67.9225 52.9829 67.036C52.9829 66.1495 52.5993 65.4308 52.1262 65.4308C51.653 65.4308 51.2695 66.1495 51.2695 67.036C51.2695 67.9225 51.653 68.6412 52.1262 68.6412Z" fill="#FDA57D"/>
<path opacity="0.1" d="M34.3455 64.1787H51.9106C51.9106 64.1787 50.4128 57.1017 43.7692 57.5595C37.1256 58.0173 34.3455 64.1787 34.3455 64.1787Z" fill="black"/>
<path opacity="0.5" d="M189.961 116.597H91.8053V124.408H189.961V116.597Z" fill="#E0E0E0"/>
<path opacity="0.5" d="M189.961 132.219H91.8053V140.029H189.961V132.219Z" fill="#E0E0E0"/>
<path opacity="0.5" d="M43.1612 143.681C53.3994 143.681 61.6991 135.358 61.6991 125.092C61.6991 114.826 53.3994 106.503 43.1612 106.503C32.923 106.503 24.6233 114.826 24.6233 125.092C24.6233 135.358 32.923 143.681 43.1612 143.681Z" fill="#E0E0E0"/>
<path opacity="0.5" d="M189.961 176.093H91.8053V183.904H189.961V176.093Z" fill="#E0E0E0"/>
<path opacity="0.5" d="M189.961 191.714H91.8053V199.525H189.961V191.714Z" fill="#E0E0E0"/>
<path opacity="0.5" d="M43.1612 203.176C53.3994 203.176 61.6991 194.854 61.6991 184.588C61.6991 174.321 53.3994 165.999 43.1612 165.999C32.923 165.999 24.6233 174.321 24.6233 184.588C24.6233 194.854 32.923 203.176 43.1612 203.176Z" fill="#E0E0E0"/>
<path opacity="0.5" d="M189.961 235.589H91.8053V243.399H189.961V235.589Z" fill="#E0E0E0"/>
<path opacity="0.5" d="M189.961 251.21H91.8053V259.02H189.961V251.21Z" fill="#E0E0E0"/>
<path opacity="0.5" d="M43.1612 262.672C53.3994 262.672 61.6991 254.35 61.6991 244.083C61.6991 233.817 53.3994 225.494 43.1612 225.494C32.923 225.494 24.6233 233.817 24.6233 244.083C24.6233 254.35 32.923 262.672 43.1612 262.672Z" fill="#E0E0E0"/>
<path opacity="0.5" d="M189.961 295.084H91.8053V302.895H189.961V295.084Z" fill="#E0E0E0"/>
<path opacity="0.5" d="M189.961 310.705H91.8053V318.516H189.961V310.705Z" fill="#E0E0E0"/>
<path opacity="0.5" d="M43.1612 322.168C53.3994 322.168 61.6991 313.845 61.6991 303.579C61.6991 293.312 53.3994 284.99 43.1612 284.99C32.923 284.99 24.6233 293.312 24.6233 303.579C24.6233 313.845 32.923 322.168 43.1612 322.168Z" fill="#E0E0E0"/>
</g>
<path d="M337.297 46.5827L137.072 47.0681C134.891 47.0739 132.8 47.9441 131.261 49.4873C129.722 51.0306 128.86 53.1206 128.865 55.2979L129.776 421.814C129.779 422.893 129.995 423.96 130.411 424.956C130.828 425.951 131.436 426.855 132.203 427.616C132.969 428.376 133.878 428.979 134.877 429.389C135.877 429.799 136.948 430.008 138.028 430.006L338.259 429.52C340.437 429.511 342.523 428.641 344.059 427.101C345.595 425.56 346.457 423.475 346.456 421.301L345.544 54.785C345.542 53.7059 345.328 52.6377 344.913 51.6414C344.497 50.6451 343.889 49.7403 343.124 48.9785C342.358 48.2168 341.449 47.6132 340.449 47.2021C339.45 46.791 338.379 46.5805 337.297 46.5827Z" fill="url(#paint1_linear)"/>
<path d="M335.071 44.4653L139.324 44.9426C135.16 44.9528 131.793 48.3295 131.803 52.4848L132.696 417.213C132.706 421.368 136.09 424.729 140.254 424.718L336.001 424.241C340.165 424.231 343.532 420.854 343.522 416.699L342.629 51.9707C342.619 47.8154 339.235 44.4551 335.071 44.4653Z" fill="white"/>
<path d="M337.579 150.306L337.369 61.9778C337.363 59.859 336.515 57.8292 335.01 56.3345C333.505 54.8399 331.467 54.0028 329.344 54.0072L290.173 54.101C289.574 58.1297 287.55 61.8115 284.467 64.4804C281.384 67.1493 277.446 68.6291 273.365 68.6522L200.551 68.8287C196.47 68.8258 192.525 67.3654 189.429 64.7116C186.333 62.0579 184.29 58.3861 183.671 54.3602L145.098 54.454C142.975 54.4598 140.941 55.3068 139.443 56.8086C137.945 58.3105 137.107 60.3444 137.111 62.4632L137.327 150.907" fill="#FAFAFA"/>
<path d="M137.327 150.912L137.951 407.219C137.957 409.338 138.806 411.368 140.31 412.862C141.815 414.357 143.853 415.194 145.976 415.19L330.217 414.743C332.34 414.737 334.374 413.89 335.872 412.388C337.369 410.886 338.208 408.852 338.204 406.734L337.574 149.688" fill="#FAFAFA"/>
<path d="M194.178 90.7548H155.035V129.819H194.178V90.7548Z" fill="#E0E0E0"/>
<g opacity="0.5">
<path opacity="0.5" d="M367 162.27H108.536V250.013H367V162.27Z" fill="url(#paint2_linear)"/>
</g>
<path d="M363.927 165.877H111.614V247.007H363.927V165.877Z" fill="white"/>
<path d="M310.397 195.923H212.241V203.734H310.397V195.923Z" fill="#25D366"/>
<path d="M310.397 211.55H212.241V219.36H310.397V211.55Z" fill="#25D366"/>
<path d="M310.397 282.464H212.241V290.274H310.397V282.464Z" fill="#E0E0E0"/>
<path d="M310.397 298.085H212.241V305.896H310.397V298.085Z" fill="#EEEEEE"/>
<path d="M283.297 122.003H239.34V135.826H283.297V122.003Z" fill="#25D366"/>
<path d="M163.597 223.006C173.835 223.006 182.135 214.684 182.135 204.418C182.135 194.151 173.835 185.829 163.597 185.829C153.359 185.829 145.059 194.151 145.059 204.418C145.059 214.684 153.359 223.006 163.597 223.006Z" fill="#F5F5F5"/>
<path d="M171.584 217.43H155.5C154.728 217.436 153.97 217.627 153.288 217.988C152.607 218.349 152.023 218.869 151.586 219.504C155.199 221.572 159.287 222.672 163.452 222.695C167.617 222.718 171.717 221.664 175.353 219.636C174.945 218.996 174.391 218.462 173.735 218.079C173.08 217.695 172.342 217.473 171.584 217.43Z" fill="#25D366"/>
<path d="M155.638 204.897C155.638 204.897 153.283 211.737 151.995 211.097C151.995 211.097 164.398 221.788 175.348 211.097C174.03 208.85 172.447 206.769 170.633 204.897H155.638Z" fill="#333333"/>
<path d="M163.586 213.453C168.674 213.453 172.799 209.336 172.799 204.258C172.799 199.179 168.674 195.062 163.586 195.062C158.497 195.062 154.372 199.179 154.372 204.258C154.372 209.336 158.497 213.453 163.586 213.453Z" fill="#333333"/>
<path opacity="0.1" d="M160.347 214.247H166.775V216.74C166.775 217.521 166.464 218.271 165.91 218.823C165.357 219.375 164.606 219.686 163.823 219.686H163.271C162.488 219.686 161.737 219.375 161.184 218.823C160.63 218.271 160.319 217.521 160.319 216.74V214.247H160.347Z" fill="black"/>
<path d="M161.027 214.093H166.101C166.281 214.093 166.454 214.164 166.581 214.291C166.709 214.419 166.78 214.591 166.78 214.771V216.586C166.781 216.974 166.705 217.358 166.557 217.716C166.409 218.074 166.191 218.4 165.916 218.674C165.641 218.948 165.315 219.166 164.956 219.314C164.597 219.462 164.212 219.538 163.823 219.537H163.271C162.488 219.537 161.737 219.227 161.184 218.674C160.63 218.122 160.319 217.373 160.319 216.591V214.777C160.319 214.687 160.337 214.599 160.371 214.517C160.405 214.435 160.455 214.36 160.518 214.297C160.582 214.234 160.657 214.184 160.739 214.15C160.821 214.116 160.91 214.098 160.999 214.098L161.027 214.093Z" fill="#FDA57D"/>
<path opacity="0.1" d="M160.358 215.003C162.432 215.77 164.712 215.77 166.786 215.003V214.214H160.358V215.003Z" fill="black"/>
<path d="M163.586 215.444C168.674 215.444 172.799 211.327 172.799 206.249C172.799 201.171 168.674 197.054 163.586 197.054C158.497 197.054 154.372 201.171 154.372 206.249C154.372 211.327 158.497 215.444 163.586 215.444Z" fill="#FDA57D"/>
<path d="M154.759 202.763H172.324C172.324 202.763 170.826 195.686 164.183 196.144C157.539 196.601 154.759 202.763 154.759 202.763Z" fill="#333333"/>
<path d="M154.566 207.462C155.039 207.462 155.422 206.744 155.422 205.857C155.422 204.971 155.039 204.252 154.566 204.252C154.092 204.252 153.709 204.971 153.709 205.857C153.709 206.744 154.092 207.462 154.566 207.462Z" fill="#FDA57D"/>
<path d="M172.556 207.462C173.03 207.462 173.413 206.744 173.413 205.857C173.413 204.971 173.03 204.252 172.556 204.252C172.083 204.252 171.7 204.971 171.7 205.857C171.7 206.744 172.083 207.462 172.556 207.462Z" fill="#FDA57D"/>
<path opacity="0.1" d="M154.759 203H172.324C172.324 203 170.826 195.923 164.183 196.381C157.539 196.839 154.759 203 154.759 203Z" fill="black"/>
<path d="M175.64 310.148C185.879 310.148 194.178 301.826 194.178 291.559C194.178 281.293 185.879 272.97 175.64 272.97C165.402 272.97 157.103 281.293 157.103 291.559C157.103 301.826 165.402 310.148 175.64 310.148Z" fill="#E0E0E0"/>
<path d="M175.64 381.663C185.879 381.663 194.178 373.341 194.178 363.074C194.178 352.808 185.879 344.485 175.64 344.485C165.402 344.485 157.103 352.808 157.103 363.074C157.103 373.341 165.402 381.663 175.64 381.663Z" fill="#E0E0E0"/>
<path d="M310.397 351.573H212.241V359.384H310.397V351.573Z" fill="#E0E0E0"/>
<path d="M310.397 367.195H212.241V375.005H310.397V367.195Z" fill="#EEEEEE"/>
<path d="M310.397 90.7548H212.241V98.5654H310.397V90.7548Z" fill="#E0E0E0"/>
<path d="M310.397 106.382H212.241V114.192H310.397V106.382Z" fill="#E0E0E0"/>
<path d="M257.685 58.4643L212.921 59.1349C212.31 59.144 211.823 59.6453 211.832 60.2545L211.843 60.9771C211.852 61.5863 212.354 62.0727 212.965 62.0636L257.729 61.393C258.34 61.3838 258.827 60.8825 258.818 60.2733L258.807 59.5508C258.798 58.9416 258.296 58.4551 257.685 58.4643Z" fill="#DBDBDB"/>
<path d="M268.819 61.2326C269.793 61.218 270.57 60.4185 270.556 59.4468C270.541 58.4751 269.74 57.6992 268.766 57.7138C267.793 57.7283 267.015 58.5279 267.03 59.4996C267.044 60.4713 267.845 61.2472 268.819 61.2326Z" fill="#DBDBDB"/>
</g>
<defs>
<linearGradient id="paint0_linear" x1="24.5916" y1="392.714" x2="192.428" y2="-7.12099" gradientUnits="userSpaceOnUse">
<stop stop-color="#808080" stop-opacity="0.25"/>
<stop offset="0.54" stop-color="#808080" stop-opacity="0.12"/>
<stop offset="1" stop-color="#808080" stop-opacity="0.1"/>
</linearGradient>
<linearGradient id="paint1_linear" x1="121495" y1="328429" x2="277744" y2="119042" gradientUnits="userSpaceOnUse">
<stop stop-color="#808080" stop-opacity="0.25"/>
<stop offset="0.54" stop-color="#808080" stop-opacity="0.12"/>
<stop offset="1" stop-color="#808080" stop-opacity="0.1"/>
</linearGradient>
<linearGradient id="paint2_linear" x1="111295" y1="39930.9" x2="111295" y2="25974.5" gradientUnits="userSpaceOnUse">
<stop stop-color="#808080" stop-opacity="0.25"/>
<stop offset="0.54" stop-color="#808080" stop-opacity="0.12"/>
<stop offset="1" stop-color="#808080" stop-opacity="0.1"/>
</linearGradient>
<clipPath id="clip0">
<rect width="367" height="430" fill="white"/>
</clipPath>
</defs>
</svg>
